<?xml version="1.0" standalone="no"?>
<!DOCTYPE svg PUBLIC "-//W3C//DTD SVG 20010904//EN"
 "http://www.w3.org/TR/2001/REC-SVG-20010904/DTD/svg10.dtd">
<svg version="1.0" xmlns="http://www.w3.org/2000/svg"
 width="700.000000pt" height="700.000000pt" viewBox="0 0 700.000000 700.000000"
 preserveAspectRatio="xMidYMid meet">
<metadata>
Created by potrace 1.14, written by Peter Selinger 2001-2017
</metadata>
<g transform="translate(0.000000,700.000000) scale(0.100000,-0.100000)"
fill="#000000" stroke="none">
<path d="M3217 6414 c-1 -1 -36 -4 -78 -8 -75 -6 -146 -14 -184 -21 -706 -128
-1276 -497 -1667 -1077 -48 -72 -170 -288 -174 -308 0 -3 -15 -36 -33 -74 -61
-132 -150 -423 -166 -543 -2 -21 -9 -65 -15 -98 -22 -133 -30 -378 -17 -540
18 -224 45 -351 127 -615 39 -123 43 -141 59 -230 9 -53 7 -215 -3 -279 -20
-120 -97 -306 -173 -414 -56 -79 -77 -103 -182 -212 -76 -80 -99 -111 -112
-150 -47 -152 32 -316 180 -369 50 -18 97 -19 951 -19 l900 0 60 -82 c210
-290 497 -518 810 -645 30 -12 64 -26 75 -31 69 -29 220 -67 370 -94 93 -17
286 -20 1220 -20 l1030 0 50 25 c107 53 168 147 168 265 0 85 -21 135 -94 221
-111 130 -219 316 -303 522 -34 82 -44 117 -37 130 35 67 112 344 126 457 28
220 27 353 -6 575 -32 224 -113 448 -241 667 -36 62 -57 110 -54 120 2 10 8
47 11 83 4 36 9 76 11 90 5 36 4 347 -1 395 -2 22 -7 65 -10 95 -3 30 -10 82
-16 115 -6 33 -12 70 -14 82 -22 130 -97 363 -174 533 -196 439 -539 830 -955
1087 -232 143 -562 276 -789 317 -15 3 -53 10 -85 15 -133 25 -228 32 -415 35
-81 1 -149 1 -150 0z m393 -598 c54 -7 101 -16 150 -27 25 -6 56 -13 70 -15
13 -3 72 -21 130 -41 612 -205 1086 -723 1235 -1348 30 -125 54 -285 43 -291
-4 -3 -40 14 -78 36 -182 106 -445 196 -660 225 -14 2 -45 6 -70 10 -55 9
-338 9 -400 1 -65 -9 -123 -18 -140 -21 -278 -58 -494 -145 -705 -286 -61 -40
-112 -75 -115 -78 -3 -3 -25 -22 -50 -42 -72 -58 -196 -184 -278 -283 -50 -60
-152 -220 -200 -313 -104 -203 -165 -406 -198 -657 -19 -144 -9 -395 21 -545
8 -40 15 -79 15 -86 0 -10 -95 -12 -450 -12 -248 0 -450 1 -450 2 0 3 44 104
66 150 24 53 61 177 85 285 20 89 23 133 23 290 0 219 -10 281 -89 538 -86
281 -99 365 -99 632 1 167 5 246 17 305 9 44 19 94 22 110 65 321 256 668 504
915 345 344 760 530 1241 558 106 6 275 1 360 -12z m825 -2041 c230 -42 408
-118 585 -251 248 -187 418 -451 492 -764 22 -96 33 -369 18 -455 -5 -27 -11
-67 -15 -87 -13 -81 -87 -294 -115 -333 -17 -23 -31 -88 -31 -137 0 -77 117
-409 192 -545 13 -22 14 -32 6 -35 -21 -7 -1441 -1 -1482 6 -22 4 -68 11 -103
16 -34 6 -108 26 -165 44 -416 137 -748 490 -856 913 -118 460 9 926 343 1258
113 112 208 181 341 248 117 59 278 110 390 123 22 3 41 7 43 9 9 9 296 1 357
-10z"/>
</g>
</svg>
