<?xml version="1.0" encoding="utf-8"?><svg xml:space="preserve" viewBox="0 0 100 100" y="0" x="0" xmlns="http://www.w3.org/2000/svg" id="Layer_1" version="1.1" width="200px" height="200px" xmlns:xlink="http://www.w3.org/1999/xlink" style="width:100%;height:100%;background-size:initial;background-repeat-y:initial;background-repeat-x:initial;background-position-y:initial;background-position-x:initial;background-origin:initial;background-color:initial;background-clip:initial;background-attachment:initial;animation-play-state:paused" ><g class="ldl-scale" style="transform-origin:50% 50%;transform:rotate(0deg) scale(0.8, 0.8);animation-play-state:paused" ><path fill="#f4e6c8" d="M50 10c-22.1 0-40 17.9-40 40 0 11 9 20 20 20s20-9 20-20 9-20 20-20 20 9 20 20c0-22.1-17.9-40-40-40z" style="fill:rgb(22, 28, 61);animation-play-state:paused" ></path>
<path fill="#e15c64" d="M70 30c-11 0-20 9-20 20s-9 20-20 20-20-9-20-20c0 22.1 17.9 40 40 40s40-17.9 40-40c0-11-9-20-20-20z" style="fill:rgb(166, 168, 201);animation-play-state:paused" ></path>
<circle fill="#e15c64" r="7.5" cy="50" cx="30" style="fill:rgb(166, 168, 201);animation-play-state:paused" ></circle>
<circle fill="#f4e6c8" r="7.5" cy="50" cx="70" style="fill:rgb(22, 28, 61);animation-play-state:paused" ></circle>
<metadata xmlns:d="https://loading.io/stock/" style="animation-play-state:paused" ><d:name style="animation-play-state:paused" >taiji</d:name>
<d:tags style="animation-play-state:paused" >tao,chinese,korea,harmony,symmetry,unite,concord,unison,taiji,spinner</d:tags>
<d:license style="animation-play-state:paused" >pro</d:license>
<d:slug style="animation-play-state:paused" >ku66sf</d:slug></metadata></g><!-- generated by https://loading.io/ --></svg>